<svg xmlns="http://www.w3.org/2000/svg" version="1.1" xmlns:xlink="http://www.w3.org/1999/xlink" xmlns:svgjs="http://svgjs.dev/svgjs" width="1440" height="560" preserveAspectRatio="none" viewBox="0 0 1440 560"><g mask="url(&quot;#SvgjsMask1052&quot;)" fill="none"><rect width="1440" height="560" x="0" y="0" fill="url(&quot;#SvgjsLinearGradient1053&quot;)"></rect><path d="M1417.904,429.976C1447.311,430.721,1476.099,419.045,1492.158,394.399C1509.81,367.308,1516.134,332.152,1499.844,304.22C1483.651,276.455,1449.96,264.724,1417.904,267.076C1389.592,269.153,1368.114,290.01,1354.439,314.887C1341.351,338.695,1336.774,367.003,1349.893,390.794C1363.434,415.35,1389.871,429.266,1417.904,429.976" fill="rgba(28, 142, 76, 0.4)" class="triangle-float1"></path><path d="M1332.69,297.149C1380.81,295.776,1427.531,277.718,1453.288,237.048C1480.945,193.379,1486.496,138.271,1462.212,92.64C1436.464,44.258,1387.495,10.003,1332.69,10.438C1278.542,10.868,1233.471,47.61,1206.68,94.668C1180.203,141.173,1171.28,198.852,1199.555,244.286C1226.595,287.736,1281.534,298.608,1332.69,297.149" fill="rgba(28, 142, 76, 0.4)" class="triangle-float1"></path><path d="M1197.294,345.113C1242.445,344.922,1291.647,341.239,1316.685,303.666C1344.015,262.653,1344.344,206.613,1316.839,165.717C1291.732,128.386,1242.25,124.446,1197.294,126.145C1156.116,127.701,1115.578,140.1,1092.44,174.198C1066.061,213.073,1051.576,264.638,1076.143,304.683C1100.004,343.577,1151.664,345.306,1197.294,345.113" fill="rgba(28, 142, 76, 0.4)" class="triangle-float1"></path><path d="M747.596,459.593C769.854,460.858,793.405,454.91,805.421,436.131C818.263,416.062,817.729,389.757,805.283,369.44C793.34,349.944,770.459,341.677,747.596,341.734C724.847,341.79,701.163,349.681,690.403,369.725C680.061,388.99,688.395,411.702,700.134,430.148C710.848,446.983,727.673,458.461,747.596,459.593" fill="rgba(28, 142, 76, 0.4)" class="triangle-float2"></path><path d="M970.726,352.997C1021.275,350.481,1048.769,299.957,1074.113,256.148C1099.514,212.24,1128.408,163.799,1106.7,117.953C1082.568,66.988,1027.096,36.281,970.726,37.801C916.644,39.259,872.418,77.26,846.888,124.959C822.872,169.83,823.543,222.686,847.831,267.411C873.365,314.429,917.288,355.657,970.726,352.997" fill="rgba(28, 142, 76, 0.4)" class="triangle-float3"></path><path d="M816.519,251.807C875.722,251.68,931.664,223.056,961.801,172.098C992.482,120.219,993.724,55.506,963.426,3.403C933.285,-48.43,876.475,-78.376,816.519,-77.742C757.658,-77.12,704.595,-44.369,674.895,6.453C644.911,57.762,640.441,121.257,670.15,172.726C699.864,224.203,757.082,251.935,816.519,251.807" fill="rgba(28, 142, 76, 0.4)" class="triangle-float2"></path></g><defs><mask id="SvgjsMask1052"><rect width="1440" height="560" fill="#ffffff"></rect></mask><linearGradient x1="15.28%" y1="-39.29%" x2="84.72%" y2="139.29%" gradientUnits="userSpaceOnUse" id="SvgjsLinearGradient1053"><stop stop-color="#0e2a47" offset="0"></stop><stop stop-color="#00459e" offset="1"></stop></linearGradient><style>
                @keyframes float1 {
                    0%{transform: translate(0, 0)}
                    50%{transform: translate(-10px, 0)}
                    100%{transform: translate(0, 0)}
                }

                .triangle-float1 {
                    animation: float1 5s infinite;
                }

                @keyframes float2 {
                    0%{transform: translate(0, 0)}
                    50%{transform: translate(-5px, -5px)}
                    100%{transform: translate(0, 0)}
                }

                .triangle-float2 {
                    animation: float2 4s infinite;
                }

                @keyframes float3 {
                    0%{transform: translate(0, 0)}
                    50%{transform: translate(0, -10px)}
                    100%{transform: translate(0, 0)}
                }

                .triangle-float3 {
                    animation: float3 6s infinite;
                }
            </style></defs></svg>